<svg width="697" height="467" viewBox="0 0 697 467" fill="none" xmlns="http://www.w3.org/2000/svg">
<path d="M2.0645 11.128H91.5365V36.088L35.4725 114.04H93.4565V139H0.5285V114.04L56.5925 36.088H2.0645V11.128ZM201.421 139H172.045V127.096C169.101 131.32 165.261 134.712 160.525 137.272C155.917 139.704 150.349 140.92 143.821 140.92C138.573 140.92 133.645 139.832 129.036 137.656C124.429 135.352 120.397 132.152 116.941 128.056C113.613 123.832 110.989 118.776 109.069 112.888C107.149 107 106.189 100.408 106.189 93.112C106.189 84.92 107.469 77.688 110.029 71.416C112.717 65.144 116.237 59.896 120.589 55.672C125.069 51.448 130.253 48.312 136.141 46.264C142.029 44.088 148.301 43 154.957 43C158.285 43 161.229 43.256 163.789 43.768C166.349 44.152 168.653 44.664 170.701 45.304V3.44799H201.421V139ZM154.957 117.304C161.485 117.304 166.733 115.128 170.701 110.776V67.576C167.885 66.552 164.237 66.04 159.757 66.04C152.077 66.04 146.317 68.408 142.477 73.144C138.765 77.88 136.909 84.344 136.909 92.536C136.909 99.832 138.317 105.784 141.133 110.392C144.077 115 148.685 117.304 154.957 117.304ZM284.554 71.416H280.906C268.746 71.416 260.17 74.488 255.178 80.632V139H224.458V44.92H254.218V60.664C256.01 55.544 258.762 51.512 262.474 48.568C266.186 45.624 271.05 44.152 277.066 44.152C278.858 44.152 280.33 44.28 281.482 44.536C282.762 44.664 284.042 44.92 285.322 45.304L284.554 71.416ZM390.904 91.96C390.904 98.872 389.816 105.336 387.64 111.352C385.464 117.24 382.264 122.424 378.04 126.904C373.816 131.256 368.568 134.712 362.296 137.272C356.024 139.704 348.856 140.92 340.792 140.92C332.728 140.92 325.56 139.704 319.288 137.272C313.016 134.712 307.768 131.256 303.544 126.904C299.32 122.424 296.12 117.24 293.944 111.352C291.768 105.336 290.68 98.872 290.68 91.96C290.68 85.048 291.768 78.648 293.944 72.76C296.12 66.744 299.32 61.56 303.544 57.208C307.768 52.728 313.016 49.272 319.288 46.84C325.56 44.28 332.728 43 340.792 43C348.856 43 356.024 44.28 362.296 46.84C368.568 49.272 373.816 52.728 378.04 57.208C382.264 61.56 385.464 66.744 387.64 72.76C389.816 78.648 390.904 85.048 390.904 91.96ZM360.184 91.96C360.184 88.632 359.864 85.432 359.224 82.36C358.584 79.16 357.496 76.344 355.96 73.912C354.552 71.352 352.568 69.368 350.008 67.96C347.576 66.424 344.504 65.656 340.792 65.656C337.08 65.656 333.944 66.424 331.384 67.96C328.952 69.368 326.968 71.352 325.432 73.912C324.024 76.344 323 79.16 322.36 82.36C321.72 85.432 321.4 88.632 321.4 91.96C321.4 95.288 321.72 98.552 322.36 101.752C323 104.824 324.024 107.64 325.432 110.2C326.968 112.632 328.952 114.616 331.384 116.152C333.944 117.56 337.08 118.264 340.792 118.264C344.504 118.264 347.576 117.56 350.008 116.152C352.568 114.616 354.552 112.632 355.96 110.2C357.496 107.64 358.584 104.824 359.224 101.752C359.864 98.552 360.184 95.288 360.184 91.96ZM493.483 139L472.747 78.904L452.01 139H423.211L396.523 44.92H425.899L439.147 101.56L458.347 44.92H487.147L506.347 101.56L519.595 44.92H548.971L522.283 139H493.483ZM561.395 139V44.92H592.115V139H561.395ZM559.475 17.464C559.475 12.6 561.075 8.504 564.275 5.17599C567.475 1.84799 571.635 0.18399 576.755 0.18399C581.875 0.18399 586.035 1.84799 589.235 5.17599C592.435 8.504 594.035 12.6 594.035 17.464C594.035 22.328 592.435 26.424 589.235 29.752C586.035 33.08 581.875 34.744 576.755 34.744C571.635 34.744 567.475 33.08 564.275 29.752C561.075 26.424 559.475 22.328 559.475 17.464ZM656.872 43C669.16 43 678.888 46.648 686.056 53.944C693.224 61.112 696.808 71.096 696.808 83.896C696.808 88.76 696.232 93.944 695.08 99.448H640.552C640.808 105.208 642.728 109.88 646.312 113.464C650.024 116.92 655.656 118.648 663.208 118.648C667.816 118.648 672.616 118.264 677.608 117.496C682.728 116.6 687.144 115.32 690.856 113.656L694.696 133.432C689.832 135.864 684.328 137.72 678.184 139C672.168 140.28 665.896 140.92 659.368 140.92C651.176 140.92 643.944 139.768 637.672 137.464C631.4 135.032 626.152 131.704 621.928 127.48C617.704 123.256 614.504 118.2 612.328 112.312C610.152 106.424 609.064 99.896 609.064 92.728C609.064 85.048 610.152 78.136 612.328 71.992C614.632 65.848 617.832 60.664 621.928 56.44C626.152 52.088 631.208 48.76 637.096 46.456C642.984 44.152 649.576 43 656.872 43ZM655.912 62.584C651.048 62.584 647.272 64.184 644.584 67.384C642.024 70.456 640.744 74.744 640.744 80.248H668.008C668.264 79.224 668.392 78.136 668.392 76.984C668.392 72.888 667.304 69.496 665.128 66.808C662.952 63.992 659.88 62.584 655.912 62.584ZM360.085 232.312V268.792H333.973V232.312H301.333V209.656H333.973V173.176H360.085V209.656H392.725V232.312H360.085ZM351.943 299.128V324.088H317.575V427H286.087V324.088H251.719V299.128H351.943ZM369.54 466.552L381.828 429.304L347.844 332.92H379.716L396.996 399.928L414.084 332.92H444.996L400.452 466.552H369.54Z" fill="black"/>
</svg>
