<svg width="767" height="236" viewBox="0 0 767 236" fill="none" xmlns="http://www.w3.org/2000/svg">
<path d="M10.752 50.128H100.224V75.088L44.16 153.04H102.144V178H9.216V153.04L65.28 75.088H10.752V50.128ZM210.108 178H180.732V166.096C177.788 170.32 173.948 173.712 169.212 176.272C164.604 178.704 159.036 179.92 152.508 179.92C147.26 179.92 142.332 178.832 137.724 176.656C133.116 174.352 129.084 171.152 125.628 167.056C122.3 162.832 119.676 157.776 117.756 151.888C115.836 146 114.876 139.408 114.876 132.112C114.876 123.92 116.156 116.688 118.716 110.416C121.404 104.144 124.924 98.896 129.276 94.672C133.756 90.448 138.94 87.312 144.828 85.264C150.716 83.088 156.988 82 163.644 82C166.972 82 169.916 82.256 172.476 82.768C175.036 83.152 177.34 83.664 179.388 84.304V42.448H210.108V178ZM163.644 156.304C170.172 156.304 175.42 154.128 179.388 149.776V106.576C176.572 105.552 172.924 105.04 168.444 105.04C160.764 105.04 155.004 107.408 151.164 112.144C147.452 116.88 145.596 123.344 145.596 131.536C145.596 138.832 147.004 144.784 149.82 149.392C152.764 154 157.372 156.304 163.644 156.304ZM293.241 110.416H289.593C277.433 110.416 268.857 113.488 263.865 119.632V178H233.145V83.92H262.905V99.664C264.697 94.544 267.449 90.512 271.161 87.568C274.873 84.624 279.737 83.152 285.753 83.152C287.545 83.152 289.017 83.28 290.169 83.536C291.449 83.664 292.729 83.92 294.009 84.304L293.241 110.416ZM399.591 130.96C399.591 137.872 398.503 144.336 396.327 150.352C394.151 156.24 390.951 161.424 386.727 165.904C382.503 170.256 377.255 173.712 370.983 176.272C364.711 178.704 357.543 179.92 349.479 179.92C341.415 179.92 334.247 178.704 327.975 176.272C321.703 173.712 316.455 170.256 312.231 165.904C308.007 161.424 304.807 156.24 302.631 150.352C300.455 144.336 299.367 137.872 299.367 130.96C299.367 124.048 300.455 117.648 302.631 111.76C304.807 105.744 308.007 100.56 312.231 96.208C316.455 91.728 321.703 88.272 327.975 85.84C334.247 83.28 341.415 82 349.479 82C357.543 82 364.711 83.28 370.983 85.84C377.255 88.272 382.503 91.728 386.727 96.208C390.951 100.56 394.151 105.744 396.327 111.76C398.503 117.648 399.591 124.048 399.591 130.96ZM368.871 130.96C368.871 127.632 368.551 124.432 367.911 121.36C367.271 118.16 366.183 115.344 364.647 112.912C363.239 110.352 361.255 108.368 358.695 106.96C356.263 105.424 353.191 104.656 349.479 104.656C345.767 104.656 342.631 105.424 340.071 106.96C337.639 108.368 335.655 110.352 334.119 112.912C332.711 115.344 331.687 118.16 331.047 121.36C330.407 124.432 330.087 127.632 330.087 130.96C330.087 134.288 330.407 137.552 331.047 140.752C331.687 143.824 332.711 146.64 334.119 149.2C335.655 151.632 337.639 153.616 340.071 155.152C342.631 156.56 345.767 157.264 349.479 157.264C353.191 157.264 356.263 156.56 358.695 155.152C361.255 153.616 363.239 151.632 364.647 149.2C366.183 146.64 367.271 143.824 367.911 140.752C368.551 137.552 368.871 134.288 368.871 130.96ZM502.17 178L481.434 117.904L460.698 178H431.898L405.21 83.92H434.586L447.834 140.56L467.034 83.92H495.834L515.034 140.56L528.282 83.92H557.658L530.97 178H502.17ZM570.083 178V83.92H600.803V178H570.083ZM568.163 56.464C568.163 51.6 569.763 47.504 572.963 44.176C576.163 40.848 580.323 39.184 585.443 39.184C590.563 39.184 594.723 40.848 597.923 44.176C601.123 47.504 602.723 51.6 602.723 56.464C602.723 61.328 601.123 65.424 597.923 68.752C594.723 72.08 590.563 73.744 585.443 73.744C580.323 73.744 576.163 72.08 572.963 68.752C569.763 65.424 568.163 61.328 568.163 56.464ZM665.559 82C677.847 82 687.575 85.648 694.743 92.944C701.911 100.112 705.495 110.096 705.495 122.896C705.495 127.76 704.919 132.944 703.767 138.448H649.239C649.495 144.208 651.415 148.88 654.999 152.464C658.711 155.92 664.343 157.648 671.895 157.648C676.503 157.648 681.303 157.264 686.295 156.496C691.415 155.6 695.831 154.32 699.543 152.656L703.383 172.432C698.519 174.864 693.015 176.72 686.871 178C680.855 179.28 674.583 179.92 668.055 179.92C659.863 179.92 652.631 178.768 646.359 176.464C640.087 174.032 634.839 170.704 630.615 166.48C626.391 162.256 623.191 157.2 621.015 151.312C618.839 145.424 617.751 138.896 617.751 131.728C617.751 124.048 618.839 117.136 621.015 110.992C623.319 104.848 626.519 99.664 630.615 95.44C634.839 91.088 639.895 87.76 645.783 85.456C651.671 83.152 658.263 82 665.559 82ZM664.599 101.584C659.735 101.584 655.959 103.184 653.271 106.384C650.711 109.456 649.431 113.744 649.431 119.248H676.695C676.951 118.224 677.079 117.136 677.079 115.984C677.079 111.888 675.991 108.496 673.815 105.808C671.639 102.992 668.567 101.584 664.599 101.584ZM721.551 162.256C721.551 157.648 723.023 153.616 725.967 150.16C728.911 146.704 733.199 144.976 738.831 144.976C744.463 144.976 748.751 146.704 751.695 150.16C754.639 153.616 756.111 157.648 756.111 162.256C756.111 166.864 754.639 170.896 751.695 174.352C748.751 177.808 744.463 179.536 738.831 179.536C733.199 179.536 728.911 177.808 725.967 174.352C723.023 170.896 721.551 166.864 721.551 162.256Z" fill="black"/>
</svg>
